<?xml version="1.0" encoding="utf-8"?>
<!-- Generator: Adobe Illustrator 28.0.0, SVG Export Plug-In . SVG Version: 6.00 Build 0)  -->
<svg version="1.1" id="Layer_1" xmlns="http://www.w3.org/2000/svg" xmlns:xlink="http://www.w3.org/1999/xlink" x="0px" y="0px"
	 viewBox="0 0 24 24" style="enable-background:new 0 0 24 24;" xml:space="preserve">
<style type="text/css">
	.st0{fill:#E2E2E2;}
	.st1{fill:#F5F5F5;}
	.st2{fill:#FFB8B8;}
</style>
<path class="st0" d="M21.5,24h-19C1.1,24,0,22.9,0,21.5v-19C0,1.1,1.1,0,2.5,0h19C22.9,0,24,1.1,24,2.5v19C24,22.9,22.9,24,21.5,24z
	"/>
<polygon class="st1" points="5.8,18.6 5.7,17.3 1.6,15 5.8,10.4 13.7,9.4 19.4,10.9 21.9,14.2 19.4,13.5 19.3,19.8 10.3,21.3 "/>
<path d="M22.7,14.3l-2.9-3.5c0,0,0,0,0,0c0,0,0,0,0,0c0,0,0,0,0,0c0,0,0,0,0,0c0,0,0,0-0.1,0c0,0,0,0-0.1,0c0,0,0,0,0,0l-6.9-1.3
	c0,0-0.1,0-0.1,0L5.3,10c0,0,0,0-0.1,0c0,0-0.1,0-0.1,0c0,0,0,0-0.1,0.1c0,0,0,0-0.1,0.1c0,0,0,0,0,0c0,0,0,0,0,0l-4.1,4.5
	c-0.1,0.1-0.1,0.3-0.1,0.4c0,0.1,0.1,0.3,0.2,0.3l4.1,2.2l0.1,1.1c0,0.2,0.1,0.3,0.2,0.4L10,22c0,0,0,0,0,0c0.1,0,0.1,0.1,0.2,0.1
	c0,0,0,0,0,0c0,0,0,0,0,0c0,0,0,0,0.1,0l9.2-1.6c0.2,0,0.4-0.2,0.4-0.5v-5.6l2.3,0.7c0,0,0.1,0,0.1,0c0.2,0,0.3-0.1,0.4-0.2
	C22.9,14.6,22.9,14.4,22.7,14.3z M12.6,10.2l3.8,0.7l-6.2,0.8l-2.7-1L12.6,10.2z M5.5,11l3.8,1.4l-3.7,4.5l-3.7-2L5.5,11z M6,17.8
	C6.1,17.8,6.1,17.8,6,17.8l3.6-4.3l0.1,7.2l-3.7-2.3L6,17.8z M19,19.6L10.7,21l-0.2-8.4l3.1-0.4v3.1l2.5-0.4v-3l2.8-0.3V19.6z
	 M19.9,13.3v-1l1.1,1.3L19.9,13.3z"/>
<path class="st2" d="M16.1,3.2c-1-1-2.7-1-3.7,0l0,0L12,3.7l-0.5-0.5c-1-1-2.7-1-3.7,0s-1,2.7,0,3.7l0.5,0.5l3.7,3.7l3.7-3.7
	l0.5-0.5C17.2,5.8,17.2,4.2,16.1,3.2L16.1,3.2z"/>
<g>
	<path d="M12,11.5c-0.1,0-0.2,0-0.3-0.1L7.5,7.2C6.9,6.7,6.6,5.9,6.6,5.1c0-0.8,0.3-1.6,0.9-2.2C8,2.3,8.7,2,9.6,1.9
		c0.9,0,1.7,0.3,2.3,0.9L12,3l0.1-0.1c0.5-0.6,1.3-0.9,2.1-0.9c0.9,0,1.7,0.3,2.3,0.9l0,0c0,0,0,0,0,0c0.6,0.6,0.9,1.4,0.9,2.2
		c0,0.8-0.3,1.6-0.9,2.2l-4.2,4.2C12.2,11.5,12.1,11.5,12,11.5z M9.6,2.9C9.6,2.9,9.6,2.9,9.6,2.9C9,2.9,8.5,3.1,8.2,3.5
		c-0.4,0.4-0.6,1-0.6,1.6c0,0.6,0.2,1.1,0.6,1.5l3.8,3.8l3.8-3.8c0.4-0.4,0.6-1,0.6-1.5s-0.2-1.1-0.6-1.5c0,0,0,0,0,0
		c-0.4-0.4-1-0.7-1.6-0.6c-0.6,0-1.1,0.2-1.4,0.6L12.3,4c-0.2,0.2-0.5,0.2-0.7,0l-0.5-0.5C10.8,3.1,10.2,2.9,9.6,2.9z"/>
</g>
</svg>
